<?xml version="1.0" encoding="UTF-8"?>
<!DOCTYPE svg PUBLIC "-//W3C//DTD SVG 1.1//EN" "http://www.w3.org/Graphics/SVG/1.1/DTD/svg11.dtd">
<svg xmlns="http://www.w3.org/2000/svg" version="1.1" width="512px" height="512px" style="shape-rendering:geometricPrecision; text-rendering:geometricPrecision; image-rendering:optimizeQuality; fill-rule:evenodd; clip-rule:evenodd" xmlns:xlink="http://www.w3.org/1999/xlink">
<g><path style="opacity:0.983" fill="#6cc729" d="M 83.5,-0.5 C 90.5,-0.5 97.5,-0.5 104.5,-0.5C 156.669,6.16686 200.502,28.8335 236,67.5C 241.924,74.3658 247.091,81.6992 251.5,89.5C 242.435,105.845 235.602,123.178 231,141.5C 230.617,142.056 230.117,142.389 229.5,142.5C 227.496,141.327 225.996,139.66 225,137.5C 221.409,120.213 218.076,102.88 215,85.5C 211.35,77.57 206.35,76.57 200,82.5C 199.333,85.1667 199.333,87.8333 200,90.5C 202.068,99.8322 203.735,109.166 205,118.5C 197.858,111.269 190.525,104.269 183,97.5C 179.333,79.1641 175.666,60.8308 172,42.5C 167.38,35.0362 162.38,34.7029 157,41.5C 158.508,53.1958 160.175,64.8625 162,76.5C 144.167,59.3333 126.333,42.1667 108.5,25C 100.385,23.782 96.8846,27.282 98,35.5C 116.987,54.6534 136.154,73.6534 155.5,92.5C 141.512,93.3328 127.512,93.8328 113.5,94C 107.988,99.4076 108.321,104.408 114.5,109C 134.167,109.333 153.833,109.667 173.5,110C 182.196,119.031 191.196,127.697 200.5,136C 185.823,136.386 171.156,136.386 156.5,136C 149.846,140.951 149.846,145.951 156.5,151C 176.827,151.87 197.16,152.537 217.5,153C 220.371,155.703 223.038,158.536 225.5,161.5C 221.151,176.243 217.817,191.243 215.5,206.5C 123.981,177.469 75.3141,114.969 69.5,19C 70.1609,9.52161 74.8276,3.02161 83.5,-0.5 Z"/></g>
<g><path style="opacity:0.984" fill="#90db59" d="M 443.5,-0.5 C 448.833,-0.5 454.167,-0.5 459.5,-0.5C 465.064,1.89468 469.231,5.89468 472,11.5C 470.343,62.483 453.676,107.816 422,147.5C 384.133,188.933 337.133,212.267 281,217.5C 276.274,246.988 273.44,276.655 272.5,306.5C 260.838,305.192 249.171,305.192 237.5,306.5C 237.768,276.112 240.435,245.946 245.5,216C 245.257,215.098 244.923,214.265 244.5,213.5C 245.693,213.03 246.36,212.03 246.5,210.5C 247.891,202.092 249.557,193.759 251.5,185.5C 253.147,180.246 254.48,174.913 255.5,169.5C 260.13,153.932 264.797,138.266 269.5,122.5C 290.989,74.5126 325.989,40.0126 374.5,19C 396.869,9.82813 419.869,3.32813 443.5,-0.5 Z"/></g>
<g><path style="opacity:1" fill="#4e901e" d="M 229.5,142.5 C 238.861,150.86 247.528,159.86 255.5,169.5C 254.48,174.913 253.147,180.246 251.5,185.5C 243.134,177.132 234.467,169.132 225.5,161.5C 223.038,158.536 220.371,155.703 217.5,153C 197.16,152.537 176.827,151.87 156.5,151C 149.846,145.951 149.846,140.951 156.5,136C 171.156,136.386 185.823,136.386 200.5,136C 191.196,127.697 182.196,119.031 173.5,110C 153.833,109.667 134.167,109.333 114.5,109C 108.321,104.408 107.988,99.4076 113.5,94C 127.512,93.8328 141.512,93.3328 155.5,92.5C 136.154,73.6534 116.987,54.6534 98,35.5C 96.8846,27.282 100.385,23.782 108.5,25C 126.333,42.1667 144.167,59.3333 162,76.5C 160.175,64.8625 158.508,53.1958 157,41.5C 162.38,34.7029 167.38,35.0362 172,42.5C 175.666,60.8308 179.333,79.1641 183,97.5C 190.525,104.269 197.858,111.269 205,118.5C 203.735,109.166 202.068,99.8322 200,90.5C 199.333,87.8333 199.333,85.1667 200,82.5C 206.35,76.57 211.35,77.57 215,85.5C 218.076,102.88 221.409,120.213 225,137.5C 225.996,139.66 227.496,141.327 229.5,142.5 Z"/></g>
<g><path style="opacity:1" fill="#5eac24" d="M 433.5,24.5 C 443.14,24.2907 446.307,28.624 443,37.5C 423.862,55.6379 405.028,74.1379 386.5,93C 399.833,93.3333 413.167,93.6667 426.5,94C 432.616,96.3215 434.116,100.488 431,106.5C 429.829,107.893 428.329,108.727 426.5,109C 407.167,109.333 387.833,109.667 368.5,110C 359.804,119.031 350.804,127.697 341.5,136C 356.159,135.679 370.825,135.679 385.5,136C 391.218,139.804 391.885,144.304 387.5,149.5C 386.205,150.098 384.872,150.598 383.5,151C 364.167,151.333 344.833,151.667 325.5,152C 312.693,164.896 299.693,177.563 286.5,190C 276.511,193.007 272.677,189.507 275,179.5C 288.362,165.804 302.029,152.471 316,139.5C 319.954,120.059 324.288,100.726 329,81.5C 333.625,77.3541 337.959,77.6875 342,82.5C 342.667,85.5 342.667,88.5 342,91.5C 339.879,100.095 338.545,108.762 338,117.5C 345.303,111.198 352.303,104.532 359,97.5C 362.412,79.1074 366.079,60.7741 370,42.5C 372.735,36.8783 376.901,35.3783 382.5,38C 384.444,39.722 385.444,41.8887 385.5,44.5C 383.432,55.8135 381.432,66.8135 379.5,77.5C 397.521,59.8121 415.521,42.1455 433.5,24.5 Z"/></g>
<g><path style="opacity:1" fill="#5eac24" d="M 251.5,89.5 C 258.769,99.6963 264.769,110.696 269.5,122.5C 264.797,138.266 260.13,153.932 255.5,169.5C 247.528,159.86 238.861,150.86 229.5,142.5C 230.117,142.389 230.617,142.056 231,141.5C 235.602,123.178 242.435,105.845 251.5,89.5 Z"/></g>
<g><path style="opacity:1" fill="#5eac24" d="M 225.5,161.5 C 234.467,169.132 243.134,177.132 251.5,185.5C 249.557,193.759 247.891,202.092 246.5,210.5C 246.36,212.03 245.693,213.03 244.5,213.5C 234.625,211.948 224.958,209.614 215.5,206.5C 217.817,191.243 221.151,176.243 225.5,161.5 Z"/></g>
<g><path style="opacity:0.932" fill="#a96100" d="M 106.5,292.5 C 124.42,291.582 131.92,299.916 129,317.5C 122.015,329.118 112.515,331.618 100.5,325C 91.1667,315.333 91.1667,305.667 100.5,296C 102.432,294.541 104.432,293.375 106.5,292.5 Z"/></g>
<g><path style="opacity:0.934" fill="#cb7400" d="M 379.5,298.5 C 396.948,298.109 404.115,306.443 401,323.5C 396.061,333.157 388.228,336.657 377.5,334C 365.58,327.237 362.746,317.737 369,305.5C 371.998,302.262 375.498,299.929 379.5,298.5 Z"/></g>
<g><path style="opacity:1" fill="#aa6100" d="M 272.5,306.5 C 300.424,311.612 322.091,325.946 337.5,349.5C 292.407,338.585 255.907,351.585 228,388.5C 206.256,424.767 206.089,461.101 227.5,497.5C 220.576,495.913 214.076,493.246 208,489.5C 196.429,501.201 182.596,508.534 166.5,511.5C 158.5,511.5 150.5,511.5 142.5,511.5C 121.968,507.147 105.468,496.48 93,479.5C 76.7309,494.112 58.8975,496.279 39.5,486C 22.0347,472.6 16.868,455.433 24,434.5C 33.4775,415.175 48.9775,407.009 70.5,410C 75.0471,411.186 79.3805,412.52 83.5,414C 98.7825,377.921 126.116,360.755 165.5,362.5C 180.455,332.212 204.455,313.546 237.5,306.5C 249.171,305.192 260.838,305.192 272.5,306.5 Z"/></g>
<g><path style="opacity:0.851" fill="#cb7400" d="M 420.5,316.5 C 426.518,315.191 430.185,317.524 431.5,323.5C 430.185,329.649 426.518,331.815 420.5,330C 415.221,325.503 415.221,321.003 420.5,316.5 Z"/></g>
<g><path style="opacity:0.896" fill="#a96100" d="M 79.5,342.5 C 87.775,341.706 90.9417,345.373 89,353.5C 84.6667,357.5 80.3333,357.5 76,353.5C 74.6631,348.872 75.8298,345.205 79.5,342.5 Z"/></g>
<g><path style="opacity:0.99" fill="#cb7300" d="M 337.5,349.5 C 340.893,353.267 343.56,357.6 345.5,362.5C 385.074,361.113 412.74,378.446 428.5,414.5C 449.714,404.74 467.881,408.74 483,426.5C 493.23,443.41 492.896,460.077 482,476.5C 466.451,493.343 448.284,496.843 427.5,487C 424.333,484.5 421.167,482 418,479.5C 405.532,496.48 389.032,507.147 368.5,511.5C 360.5,511.5 352.5,511.5 344.5,511.5C 328.404,508.534 314.571,501.201 303,489.5C 278.895,502.292 253.729,504.958 227.5,497.5C 206.089,461.101 206.256,424.767 228,388.5C 255.907,351.585 292.407,338.585 337.5,349.5 Z"/></g>
<g><path style="opacity:0.896" fill="#cc7300" d="M 420.5,349.5 C 426.518,348.191 430.185,350.524 431.5,356.5C 430.185,362.649 426.518,364.815 420.5,363C 415.221,358.503 415.221,354.003 420.5,349.5 Z"/></g>
<g><path style="opacity:1" fill="#aa6100" d="M 273.5,369.5 C 282.513,369.04 285.18,372.873 281.5,381C 273.246,384.081 269.746,381.248 271,372.5C 272.045,371.627 272.878,370.627 273.5,369.5 Z"/></g>
<g><path style="opacity:1" fill="#ab6100" d="M 352.5,394.5 C 359.484,394.317 362.317,397.65 361,404.5C 357.098,409.804 353.098,409.804 349,404.5C 348.333,402.5 348.333,400.5 349,398.5C 350.376,397.295 351.542,395.962 352.5,394.5 Z"/></g>
<g><path style="opacity:1" fill="#aa6100" d="M 290.5,402.5 C 305.341,402.506 312.508,409.84 312,424.5C 306.873,436.876 298.04,440.709 285.5,436C 274.829,427.473 273.829,417.973 282.5,407.5C 284.928,405.295 287.595,403.628 290.5,402.5 Z"/></g>
<g><path style="opacity:1" fill="#ab6100" d="M 420.5,431.5 C 427.992,430.824 431.159,434.157 430,441.5C 426.476,445.074 422.642,445.407 418.5,442.5C 416.762,438.31 417.429,434.643 420.5,431.5 Z"/></g>
<g><path style="opacity:1" fill="#aa6100" d="M 361.5,444.5 C 379.024,444.849 385.857,453.515 382,470.5C 376.64,478.625 369.14,481.458 359.5,479C 348.262,472.278 345.762,463.112 352,451.5C 354.825,448.524 357.992,446.191 361.5,444.5 Z"/></g>
<g><path style="opacity:1" fill="#ab6100" d="M 252.5,462.5 C 261.031,462.506 263.698,466.339 260.5,474C 254.011,477.22 250.011,475.386 248.5,468.5C 249.432,466.235 250.765,464.235 252.5,462.5 Z"/></g>
</svg>
