<svg width="128" height="128" viewBox="0 0 128 128" fill="none" xmlns="http://www.w3.org/2000/svg">
<path d="M115.469 66.3203C115.469 94.862 92.3307 118 63.7891 118C35.2474 118 12.1094 94.862 12.1094 66.3203C12.1094 37.7787 35.2474 14.6406 63.7891 14.6406C92.3307 14.6406 115.469 37.7787 115.469 66.3203Z" fill="#ACECEF"/>
<path d="M36.4694 110.195C44.3952 115.141 53.758 118 63.7891 118C73.8201 118 83.183 115.141 91.1088 110.195H36.4694Z" fill="#A55D2B"/>
<path d="M77.8584 23.3912L78.1377 23.3838C80.187 21.4788 82.855 20.4299 85.6516 20.4299C87.7898 20.4299 89.8662 21.0446 91.6567 22.208L91.875 22.2146C92.8704 21.6592 93.949 21.2662 95.0638 21.0413C94.0759 15.8354 89.5045 11.8984 84.011 11.8984C78.5176 11.8984 73.9462 15.8362 72.959 21.0421C74.752 21.4046 76.442 22.2064 77.8584 23.3912Z" fill="#02AF8E"/>
<path d="M77.8584 23.3912L78.1377 23.3838C78.5357 23.0139 78.9576 22.6768 79.3992 22.3728C79.7222 17.6523 82.9539 13.7326 87.3168 12.3928C86.272 12.0723 85.1621 11.8984 84.011 11.8984C78.5176 11.8984 73.9462 15.8362 72.959 21.0421C74.752 21.4046 76.442 22.2064 77.8584 23.3912Z" fill="#0F9390"/>
<path d="M83.829 66.6088H84.194L87.1628 61.4672V54.8705C86.7269 54.5994 86.3075 54.2986 85.9104 53.9666L85.6319 53.974C84.2674 55.2421 82.6277 56.1278 80.8602 56.5802V61.4672L83.829 66.6088Z" fill="#37C47A"/>
<path d="M81.9684 69.6302L82.0458 69.6112C84.6595 68.4156 86.0644 66.5114 87.5516 64.4951C88.0056 63.8805 88.472 63.2468 88.9804 62.628C89.291 63.4248 89.5481 64.2908 89.7813 65.3224L90.1439 65.4172C90.8558 64.6328 91.5059 64.0049 92.1659 63.466C92.2368 63.8689 92.2961 64.2694 92.3496 64.6665L97.6371 55.5081C96.1869 56.1812 94.5974 56.5364 92.9907 56.5364C91.9747 56.5364 90.9711 56.3938 90.0054 56.1219L84.011 66.5032L78.478 56.9195C78.3577 56.9228 78.2374 56.9278 78.1171 56.9278C75.3651 56.9278 72.7283 55.9085 70.6923 54.0579L70.4171 54.0513C70.2202 54.2119 70.0166 54.3636 69.8098 54.5094L78.7705 70.0306C79.8087 69.8197 80.8774 69.6837 81.9684 69.6302Z" fill="#60D882"/>
<path d="M63.4405 34.4532C66.1925 34.4532 68.8301 35.4724 70.8653 37.3222L71.1405 37.3297C73.1032 35.727 75.5809 34.8445 78.1171 34.8445C80.7011 34.8445 83.2159 35.7575 85.1967 37.4145L85.476 37.4079C87.5261 35.5021 90.1949 34.4532 92.9907 34.4532C95.1289 34.4532 97.2053 35.0678 98.9958 36.2313L99.2133 36.2387C100.848 35.3274 102.704 34.8454 104.583 34.8454C105.752 34.8454 106.879 35.0291 107.938 35.3678C108.298 34.2645 108.496 33.087 108.496 31.8634C108.496 25.649 103.458 20.6112 97.244 20.6112C95.2574 20.6112 93.3919 21.1278 91.772 22.0309C90.0095 20.8864 87.9092 20.219 85.6515 20.219C82.6926 20.219 80.0023 21.3627 77.9935 23.2298C76.0399 21.5959 73.5243 20.6112 70.7788 20.6112C64.5635 20.6112 59.5258 25.6482 59.5258 31.8634C59.5258 32.9576 59.6848 34.0132 59.9765 35.0126C61.0666 34.6509 62.23 34.4532 63.4405 34.4532Z" fill="#159E97"/>
<path d="M63.4405 34.4531C64.4836 34.4531 65.5103 34.5998 66.4941 34.8824C66.2263 33.9217 66.0813 32.9098 66.0813 31.8634C66.0813 26.7893 69.4398 22.5022 74.0541 21.0981C73.0175 20.7826 71.9183 20.6104 70.7788 20.6104C64.5644 20.6104 59.5258 25.6481 59.5258 31.8634C59.5258 32.9568 59.6856 34.0131 59.9765 35.0126C61.0666 34.6509 62.23 34.4531 63.4405 34.4531Z" fill="#0F9390"/>
<path d="M104.582 34.6336C102.596 34.6336 100.73 35.1502 99.1104 36.0541C97.3487 34.9096 95.2476 34.2422 92.9907 34.2422C90.0318 34.2422 87.3407 35.3859 85.3319 37.2522C83.3782 35.6182 80.8626 34.6336 78.1172 34.6336C75.4195 34.6336 72.9451 35.5836 71.0071 37.1656C69.0081 35.3496 66.3533 34.2422 63.4397 34.2422C57.2253 34.2422 52.1875 39.28 52.1875 45.4944C52.1875 51.7088 57.2253 56.7474 63.4397 56.7474C66.1374 56.7474 68.6118 55.7974 70.5506 54.2145C72.5487 56.0314 75.2036 57.1388 78.1172 57.1388C81.0752 57.1388 83.7663 55.9951 85.7752 54.128C87.7288 55.7619 90.2444 56.7474 92.9907 56.7474C94.9773 56.7474 96.842 56.2299 98.4627 55.3269C100.224 56.4714 102.325 57.1388 104.582 57.1388C110.797 57.1388 115.835 52.1002 115.835 45.8866C115.835 39.6714 110.797 34.6336 104.582 34.6336Z" fill="#02AF8E"/>
<path d="M58.7546 45.4944C58.7546 40.4228 62.1098 36.1365 66.7216 34.7308C65.6834 34.4144 64.5817 34.2422 63.4397 34.2422C57.2253 34.2422 52.1875 39.28 52.1875 45.4944C52.1875 51.7096 57.2253 56.7474 63.4397 56.7474C64.5817 56.7474 65.6834 56.576 66.7216 56.2596C62.1098 54.8531 58.7546 50.5659 58.7546 45.4944Z" fill="#159E97"/>
<path d="M41.5895 29.2242L47.9769 18.1607C48.9575 16.4641 48.3749 14.2937 46.6783 13.314C44.9818 12.3335 42.8114 12.9152 41.8317 14.6126L34.6681 27.0208V29.2242H41.5895Z" fill="#37C47A"/>
<path d="M21.0718 29.2242H27.9931V27.02L20.8295 14.6126C19.8498 12.9152 17.6803 12.3335 15.9821 13.314C14.2855 14.2937 13.7038 16.4641 14.6843 18.1607L21.0718 29.2242Z" fill="#37C47A"/>
<path d="M34.8783 29.2242V13.548C34.8783 11.5886 33.2905 10 31.3303 10C29.3717 10 27.7822 11.5886 27.7822 13.548V29.2242H34.8783Z" fill="#60D882"/>
<path d="M35.9766 100.094V99.7234C31.1209 95.5285 28.3359 89.4484 28.3359 83.042C28.3359 74.7298 32.9353 67.2085 40.3387 63.4149L40.3758 63.0639C39.8839 62.6594 39.4258 62.2128 39.0146 61.7332C40.6642 59.8084 42.9021 58.5411 45.3534 58.102L49.6579 38.2541C50.191 35.7945 49.7065 33.4767 48.2967 31.7282C46.8852 29.9772 44.7223 29.0132 42.2067 29.0132H20.4546C17.939 29.0132 15.7752 29.9772 14.3662 31.7257C12.9539 33.4767 12.4703 35.7945 13.0034 38.2541L26.4136 100.094H35.9766Z" fill="#FFAF10"/>
<path d="M33.0869 100.094L32.0397 95.2657C29.6477 91.6806 28.3359 87.4379 28.3359 83.042C28.3359 81.8423 28.4348 80.6599 28.621 79.5014L19.6759 38.2541C19.1428 35.7945 19.6265 33.4767 21.0388 31.7257C22.4486 29.9772 24.6115 29.0132 27.1271 29.0132H20.4546C17.939 29.0132 15.7752 29.9772 14.3662 31.7257C12.9539 33.4767 12.4703 35.7945 13.0034 38.2541L26.4136 100.094H33.0869Z" fill="#FF9518"/>
<path d="M31.7266 41.8154H13.7755L15.1721 48.2556H31.7266C33.5048 48.2556 34.9467 46.8137 34.9467 45.0355C34.9467 43.2566 33.5048 41.8154 31.7266 41.8154Z" fill="#EF8318"/>
<path d="M28.635 56.2415H16.9041L18.3007 62.6825H28.635C30.4131 62.6825 31.8551 61.2397 31.8551 59.4615C31.8551 57.6834 30.4131 56.2415 28.635 56.2415Z" fill="#EF8318"/>
<path d="M29.4631 76.0597C29.707 75.3231 29.9896 74.6029 30.3093 73.9009C30.3093 73.8968 30.3093 73.8927 30.3093 73.8885C30.3093 72.1096 28.8682 70.6685 27.0892 70.6685H20.0319L21.4285 77.1086H27.0892C28.0302 77.1086 28.8739 76.7024 29.4631 76.0597Z" fill="#EF8318"/>
<path d="M29.5851 90.3491C29.0256 88.7588 28.6458 87.101 28.4628 85.4052C28.0459 85.2075 27.582 85.0938 27.0893 85.0938H23.1614L24.5572 91.5348H27.0893C28.0962 91.5348 28.9943 91.0725 29.5851 90.3491Z" fill="#EF8318"/>
<path d="M77.697 70.2812C75.576 67.2564 72.7202 64.7845 69.3905 63.1226C68.1595 64.1122 66.7175 64.8364 65.1857 65.2155L65.0951 65.5772C67.5118 67.7599 68.7272 70.6504 68.4478 73.5343C68.0754 73.5574 67.6997 73.5689 67.3272 73.5689C67.3272 73.5689 67.3272 73.5689 67.3264 73.5689C63.6062 73.5689 60.11 72.431 57.4824 70.3645C56.5356 69.6196 55.7331 68.7734 55.0953 67.8497H54.7484C54.1115 68.7734 53.309 69.6196 52.3614 70.3645C49.7337 72.431 46.2384 73.5689 42.5174 73.5689C42.1449 73.5689 41.7684 73.5574 41.3968 73.5343C41.1166 70.6512 42.332 67.7599 44.7487 65.5772L44.6581 65.2155C43.1255 64.8356 41.6843 64.1122 40.4533 63.1226C33.1455 66.7703 28.125 74.3195 28.125 83.0421C28.125 89.8894 31.219 96.0123 36.0838 100.094H67.4409V99.754C63.7438 95.012 62.4592 89.1115 63.9176 83.5654C65.6455 76.9991 70.9494 72.0248 77.697 70.2812Z" fill="#EA2A3D"/>
<path d="M32.5423 83.0421C32.5423 75.2712 36.5287 68.4339 42.566 64.4549C41.8145 64.0916 41.1042 63.6458 40.4533 63.1226C33.1455 66.7703 28.125 74.3195 28.125 83.0421C28.125 89.8885 31.219 96.0123 36.0838 100.094H40.5011C35.6364 96.0123 32.5423 89.8885 32.5423 83.0421Z" fill="#B7092B"/>
<path d="M71.1052 61.7333C69.0683 59.2795 65.9966 57.7173 62.5598 57.7173C59.6 57.7173 56.9122 58.8766 54.9223 60.7635C52.9316 58.8766 50.243 57.7173 47.2841 57.7173C43.8473 57.7173 40.7747 59.2795 38.7386 61.7333C40.2276 63.5271 42.2727 64.8414 44.6078 65.4206C41.995 67.7797 40.8596 70.7987 41.2056 73.7321C45.239 74.027 49.4034 72.9592 52.4916 70.5301C53.4796 69.7523 54.2887 68.8879 54.9223 67.9684C55.556 68.8879 56.3643 69.7523 57.3522 70.5301C60.4413 72.9592 64.6049 74.0262 68.6382 73.7321C68.9851 70.7987 67.8488 67.7788 65.236 65.4206C67.5712 64.8414 69.6154 63.5271 71.1052 61.7333Z" fill="#02AF8E"/>
<path d="M48.9584 65.4206C46.6232 64.8414 44.5789 63.5271 43.0892 61.7333C44.6861 59.8094 46.9215 58.4374 49.4684 57.9332C48.7623 57.7914 48.0322 57.7173 47.2841 57.7173C43.8464 57.7173 40.7747 59.2795 38.7378 61.7333C40.2275 63.5271 42.2718 64.8414 44.607 65.4206C41.995 67.7797 40.8595 70.7987 41.2056 73.7321C42.6517 73.8375 44.1142 73.765 45.5381 73.5203C45.2703 70.6545 46.409 67.7228 48.9584 65.4206Z" fill="#159E97"/>
<path d="M60.3622 63.9284C60.3622 62.5112 57.9265 61.3625 54.9223 61.3625C51.9172 61.3625 49.4816 62.5112 49.4816 63.9284C49.4816 65.3456 51.9172 66.4943 54.9223 66.4943C57.9265 66.4943 60.3622 65.3456 60.3622 63.9284Z" fill="#60D882"/>
<path d="M51.6157 63.9284C51.6157 62.6842 53.4951 61.6468 55.9885 61.412C55.6441 61.3799 55.2873 61.3625 54.9214 61.3625C51.9172 61.3625 49.4816 62.5112 49.4816 63.9284C49.4816 65.3456 51.9172 66.4943 54.9214 66.4943C55.2865 66.4943 55.6432 66.477 55.9885 66.4448C53.4951 66.2108 51.6157 65.1734 51.6157 63.9284Z" fill="#37C47A"/>
<path d="M94.9386 72.8338C92.6891 69.7307 92.9726 66.5329 92.3101 63.0821C91.4293 63.766 90.6819 64.5108 89.9873 65.2755C89.7591 64.2678 89.474 63.2518 89.0447 62.2227C86.7697 64.9014 85.4431 67.8249 81.9577 69.4193C73.3892 69.8469 65.8696 75.314 63.714 83.5117C62.16 89.4188 63.7289 95.4618 67.4392 100.094H101.039C102.325 98.3193 103.304 96.2998 103.888 94.0783C106.044 85.8806 102.188 77.4217 94.9386 72.8338Z" fill="#FFAF10"/>
<path d="M94.9806 100.094C96.4638 97.9412 97.6396 95.4198 98.3746 92.6282C101.085 82.3195 96.7588 72.2464 88.7102 70.1296C80.6616 68.0128 71.939 74.6532 69.2281 84.9619C67.7804 90.4653 68.3399 95.9002 70.3998 100.094H94.9806Z" fill="#FFD00D"/>
<path d="M89.4831 100.094C90.9571 97.5859 92.2154 94.5718 93.0921 91.2388C95.8038 80.9301 93.8419 71.4791 88.711 70.1294C83.5793 68.7798 77.2215 76.0423 74.5098 86.351C73.1741 91.4292 72.9747 96.298 73.7278 100.094H89.4831Z" fill="#FFAF10"/>
<path d="M84.4412 100.094C85.6599 97.2348 86.8571 93.7197 87.8706 89.8652C90.5823 79.5572 90.9589 70.7209 88.7102 70.1293C86.4624 69.5385 82.4423 77.4157 79.7306 87.7245C78.5144 92.3478 77.7687 96.6737 77.5182 100.094H84.4412Z" fill="#FFD00D"/>
<path d="M108.768 42.8008C108.768 43.6742 108.06 44.3828 107.186 44.3828C106.313 44.3828 105.604 43.6742 105.604 42.8008C105.604 41.9274 106.313 41.2188 107.186 41.2188C108.06 41.2188 108.768 41.9274 108.768 42.8008Z" fill="#37C47A"/>
<path d="M111.51 48.707C111.51 49.5804 110.803 50.2891 109.928 50.2891C109.055 50.2891 108.346 49.5804 108.346 48.707C108.346 47.8336 109.055 47.125 109.928 47.125C110.803 47.125 111.51 47.8336 111.51 48.707Z" fill="#37C47A"/>
<path d="M104.339 48.0742C104.339 48.9476 103.631 49.6562 102.756 49.6562C101.883 49.6562 101.174 48.9476 101.174 48.0742C101.174 47.2008 101.883 46.4922 102.756 46.4922C103.631 46.4922 104.339 47.2008 104.339 48.0742Z" fill="#37C47A"/>
<path d="M104.339 29.9336C104.339 30.807 103.631 31.5156 102.756 31.5156C101.883 31.5156 101.174 30.807 101.174 29.9336C101.174 29.0602 101.883 28.3516 102.756 28.3516C103.631 28.3516 104.339 29.0602 104.339 29.9336Z" fill="#37C47A"/>
<path d="M100.12 25.293C100.12 26.1664 99.412 26.875 98.5377 26.875C97.6643 26.875 96.9557 26.1664 96.9557 25.293C96.9557 24.4196 97.6643 23.7109 98.5377 23.7109C99.412 23.7109 100.12 24.4196 100.12 25.293Z" fill="#37C47A"/>
<path d="M96.5338 30.7773C96.5338 31.6508 95.826 32.3594 94.9518 32.3594C94.0784 32.3594 93.3698 31.6508 93.3698 30.7773C93.3698 29.9039 94.0784 29.1953 94.9518 29.1953C95.826 29.1953 96.5338 29.9039 96.5338 30.7773Z" fill="#37C47A"/>
<path d="M24.4938 99.8833C28.0146 104.002 32.1707 107.56 36.8122 110.406H90.7661C95.4075 107.56 99.5628 104.002 103.084 99.8833H24.4938Z" fill="#BF7E52"/>
</svg>
